# xmcd
#
# Track frame offsets:
#	150
#	18865
#	37824
#	52570
#	69242
#	86079
#	102966
#	116800
#	136509
#	152862
#
# Disc length: 2256 seconds
#
# Revision: 0
# Processed by: cddbd v1.5.2PL0 Copyright (c) Steve Scherf et al.
# Submitted via: EasyCDDAExtractor 10.0.2.1
#
DISCID=6c08ce0a
DTITLE=Debbie Domer - Uh,Oh, I've Done It Again
DYEAR=2007
DGENRE=Gospel
TTITLE0=You're My Lord And Master
TTITLE1=Jesus Thought Of Everything
TTITLE2=Saints We're Going Home
TTITLE3=Christ Is Listening
TTITLE4=The Lords Blessing
TTITLE5=Jesus, The Heart Mender
TTITLE6=Uh, Oh, I've Done It Again
TTITLE7=Jesus The Greatest Beauty
TTITLE8=Jesus Is Real
TTITLE9=Ask Jesus
EXTD=
EXTT0=
EXTT1=
EXTT2=
EXTT3=
EXTT4=
EXTT5=
EXTT6=
EXTT7=
EXTT8=
EXTT9=
PLAYORDER=
